<svg xmlns="http://www.w3.org/2000/svg" viewBox="0 0 512 512">
  <defs>
    <linearGradient id="g" x1="0" y1="0" x2="1" y2="1">
      <stop offset="0" stop-color="#22c55e"/>
      <stop offset="1" stop-color="#16a34a"/>
    </linearGradient>
  </defs>
  <rect width="512" height="512" rx="112" fill="url(#g)"/>
  <path fill="#ffffff" d="M328 122c-46 0-95 34-132 84-40 55-58 118-36 140 23 22 84 4 140-36 50-37 84-86 84-132 0-34-24-56-56-56zm-15 88c8-11 21-14 29-6 8 8 5 21-6 29-11 8-21 14-29 6-8-8-2-18 6-29z"/>
  <path fill="#ffffff" opacity="0.9" d="M152 356l40-40 44 44-40 40c-12 12-32 12-44 0s-12-32 0-44z"/>
</svg>

